#!OML:ASF F:\VICON\USERDATA\INSTALL\Justin_Nancy\Justin_Nancy.ASF
:FULLY-SPECIFIED
:DEGREES
33
root 0.742012 17.7668 -20.2533 9.13991 -0.0983407 2.5059
lowerback 10.1616 -2.46016 -5.16699
upperback 0.752413 -3.73219 2.45335
thorax -4.41103 -1.72892 5.9947
lowerneck -23.1762 -3.01662 -8.36403
upperneck 10.7961 -2.64801 7.08611
head 7.26618 -0.945165 3.36869
rclavicle 9.54166e-015 1.94809e-014
rhumerus -62.4948 7.64414 -94.6526
rradius 113.977
rwrist -9.734
rhand -15.0501 25.1634
rfingers 7.12502
rthumb 11.1165 -4.52218
lclavicle 9.54166e-015 1.94809e-014
lhumerus -32.649 -2.56675 90.1863
lradius 116.297
lwrist 30.5886
lhand -15.4054 9.71779
lfingers 7.12502
lthumb 10.7737 39.4215
rfemur -47.5636 -4.91259 21.6034
rtibia 72.609
rfoot 0.491222 4.21796
rtoes -6.93017
lfemur 2.24114 -2.23078 -25.7257
ltibia 29.3586
lfoot 9.23976 -4.66249
ltoes -16.8017
34
root 0.733069 17.8662 -19.8084 9.19593 -0.70241 2.4708
lowerback 9.88301 -2.34782 -5.16817
upperback 0.820013 -3.56771 2.50374
thorax -4.20387 -1.65721 6.0082
lowerneck -23.6554 -2.95065 -8.30363
upperneck 10.6422 -2.53985 7.12827
head 7.28255 -0.87777 3.38654
rclavicle -1.77912e-014 1.59028e-014
rhumerus -62.8629 7.19853 -94.5463
rradius 114.142
rwrist -9.69232
rhand -14.8215 24.9577
rfingers 7.12502
rthumb 11.3369 -4.71586
lclavicle -1.77912e-014 1.59028e-014
lhumerus -32.8572 -2.92349 90.0741
lradius 115.547
lwrist 30.5262
lhand -14.3627 8.89897
lfingers 7.12502
lthumb 11.7794 38.5477
rfemur -47.0623 -4.1808 21.7505
rtibia 68.3163
rfoot 0.475706 4.32134
rtoes -8.46655
lfemur 3.76395 -2.34897 -25.7276
ltibia 27.6626
lfoot 14.3548 -4.09556
ltoes -13.6218
35
root 0.729014 17.9524 -19.3669 9.21561 -1.22494 2.49348
lowerback 9.74747 -2.29299 -5.1649
upperback 0.667634 -3.48864 2.55191
thorax -4.29661 -1.61064 6.04612
lowerneck -23.5034 -2.83712 -8.33751
upperneck 10.658 -2.38594 7.10926
head 7.25119 -0.810289 3.40554
rclavicle 1.49089e-014 -1.74931e-014
rhumerus -63.6801 6.86109 -94.4766
rradius 114.442
rwrist -9.57806
rhand -14.8499 24.9242
rfingers 7.12502
rthumb 11.3095 -4.75092
lclavicle 1.49089e-014 -1.74931e-014
lhumerus -33.4701 -3.22091 89.9965
lradius 114.677
lwrist 30.5012
lhand -15.1787 8.00265
lfingers 7.12502
lthumb 10.9924 37.6949
rfemur -46.3817 -3.62887 21.8067
rtibia 63.8793
rfoot 0.549147 4.58743
rtoes -10.5732
lfemur 5.2318 -2.7063 -25.8812
ltibia 26.2046
lfoot 17.8906 -3.61264
ltoes -13.5326
36
root 0.724847 18.0395 -18.9247 9.39687 -1.52665 2.41469
lowerback 9.4536 -2.3552 -4.93694
upperback 0.376724 -3.53606 2.59244
thorax -4.44263 -1.626 5.95859
lowerneck -22.9026 -2.71284 -8.27765
upperneck 10.6999 -2.26059 6.94868
head 7.15596 -0.773747 3.35669
rclavicle 2.98177e-014 -1.27222e-014
rhumerus -64.6696 6.52161 -94.514
rradius 114.875
rwrist -9.45907
rhand -15.0789 25.0495
rfingers 7.12502
rthumb 11.0886 -4.63758
lclavicle 2.98177e-014 -1.27222e-014
lhumerus -34.2897 -3.50543 89.8269
lradius 113.717
lwrist 30.5098
lhand -16.8627 8.56853
lfingers 7.12502
lthumb 9.36784 38.3404
rfemur -45.7388 -3.22331 21.9801
rtibia 59.2937
rfoot 0.897398 4.71164
rtoes -10.3742
lfemur 6.41111 -3.3672 -25.9256
ltibia 25.0763
lfoot 21.3384 -3.52024
ltoes -10.5857
37
root 0.721636 18.1248 -18.4763 9.67977 -1.74959 2.2615
lowerback 9.01589 -2.3913 -4.57921
upperback 0.0969079 -3.53026 2.63136
thorax -4.51091 -1.6218 5.7799
lowerneck -22.3047 -2.64896 -8.16254
upperneck 10.6092 -2.22948 6.80061
head 7.02459 -0.777575 3.28982
rclavicle -4.49253e-014 -7.95139e-016
rhumerus -65.5234 6.14432 -94.5301
rradius 115.257
rwrist -9.35434
rhand -15.3105 25.214
rfingers 7.12502
rthumb 10.8653 -4.48491
lclavicle -4.49253e-014 -7.95139e-016
lhumerus -35.1774 -3.97128 89.6996
lradius 112.884
lwrist 30.6109
lhand -17.2684 9.0979
lfingers 7.12502
lthumb 8.97637 38.8869
rfemur -45.0657 -2.83911 22.1845
rtibia 54.6208
rfoot 1.24675 4.81587
rtoes -9.58644
lfemur 7.35245 -4.13587 -25.9462
ltibia 24.4068
lfoot 23.612 -3.85228
ltoes -8.82941
38
root 0.718024 18.1921 -18.0292 9.81518 -1.96612 2.39744
lowerback 8.80067 -2.34991 -4.47477
upperback -0.147453 -3.46366 2.52719
thorax -4.66799 -1.5812 5.59966
lowerneck -21.6937 -2.62698 -7.95741
upperneck 10.2949 -2.28741 6.74394
head 6.82529 -0.810771 3.2263
rclavicle 3.78685e-014 2.46493e-014
rhumerus -66.244 5.5216 -94.5654
rradius 115.578
rwrist -8.99127
rhand -15.6082 25.4179
rfingers 7.12502
rthumb 10.5781 -4.29587
lclavicle 3.78685e-014 2.46493e-014
lhumerus -36.0521 -4.63428 89.6039
lradius 112.173
lwrist 30.8114
lhand -16.6872 9.7554
lfingers 7.12502
lthumb 9.53718 39.5196
rfemur -44.1737 -2.57414 22.0683
rtibia 49.98
rfoot 1.54247 5.11675
rtoes -10.197
lfemur 8.25054 -4.7135 -26.265
ltibia 24.1974
lfoot 24.4071 -4.42053
ltoes -7.68393
